<svg width="86" height="44" viewBox="0 0 86 44" fill="none" xmlns="http://www.w3.org/2000/svg">
<path d="M31.0384 14.595H31.6174V16.081C31.6174 16.6569 31.3626 16.8642 30.9572 16.8642C30.5518 16.8642 30.2971 16.6569 30.2971 16.081V11.7266C30.2971 11.1506 30.5518 10.9317 30.9572 10.9317C31.3626 10.9317 31.6174 11.1506 31.6174 11.7266V12.5905H32.8219V11.8072C32.8219 10.517 32.1733 9.77985 30.9225 9.77985C29.6716 9.77985 29.0229 10.517 29.0229 11.8072V16.0003C29.0229 17.2905 29.6715 18.0277 30.9225 18.0277C32.1733 18.0277 32.8219 17.2905 32.8219 16.0003V13.443H31.0383L31.0384 14.595ZM37.6056 17.9356C37.4781 17.6361 37.4666 17.3481 37.4666 16.9565V15.7123C37.4666 14.8714 37.2581 14.2609 36.621 13.9959C37.1885 13.731 37.4549 13.1896 37.4549 12.3601V11.7267C37.4549 10.4825 36.8874 9.87196 35.567 9.87196H33.6444V17.9357H34.9184V14.6526H35.3585C35.9377 14.6526 36.1924 14.929 36.1924 15.6779V16.945C36.1924 17.6017 36.2388 17.7283 36.3082 17.9357L37.6056 17.9356ZM35.5323 11.024C35.984 11.024 36.1809 11.2773 36.1809 11.8533V12.6482C36.1809 13.2932 35.8913 13.5006 35.4165 13.5006H34.9184V11.024H35.5323ZM41.1265 9.87191H39.2617L37.9645 17.9356H39.1343L39.3544 16.4726H40.918L41.138 17.9356H42.4237L41.1265 9.87191ZM40.1304 11.3004L40.7443 15.3783H39.5165L40.1304 11.3004ZM40.3041 8.16709L39.5165 9.44581H40.3736L41.5549 8.16709H40.3041ZM44.2884 11.024H46.3847V9.87191H43.0144V17.9356H44.2884V14.6064H45.9331V13.4546H44.2884V11.024ZM46.9988 17.9356H48.2727V9.87191H46.9988V17.9356ZM51.6895 14.929V16.081C51.6895 16.6569 51.4348 16.8642 51.0294 16.8642C50.624 16.8642 50.3692 16.6569 50.3692 16.081V11.7266C50.3692 11.1506 50.624 10.9317 51.0294 10.9317C51.4348 10.9317 51.6895 11.1506 51.6895 11.7266V12.5905H52.894V11.8072C52.894 10.517 52.2454 9.77985 50.9946 9.77985C49.7437 9.77985 49.095 10.517 49.095 11.8072V16.0003C49.095 17.2905 49.7436 18.0277 50.9946 18.0277C52.2454 18.0277 52.894 17.2905 52.894 16.0003V14.929H51.6895ZM56.4962 9.87191H54.6314L53.3342 17.9356H54.504L54.7242 16.4726H56.2877L56.5077 17.9356H57.7934L56.4962 9.87191ZM55.5001 11.3004L56.114 15.3783H54.8862L55.5001 11.3004ZM64.1405 17.9356C64.013 17.6361 64.0015 17.3481 64.0015 16.9565V15.7123C64.0015 14.8714 63.793 14.2609 63.1559 13.9959C63.7234 13.731 63.9898 13.1896 63.9898 12.3601V11.7267C63.9898 10.4825 63.4223 9.87196 62.1019 9.87196H60.1793V17.9357H61.4533V14.6526H61.8934C62.4726 14.6526 62.7273 14.929 62.7273 15.6779V16.945C62.7273 17.6017 62.7737 17.7283 62.8431 17.9357L64.1405 17.9356ZM62.0672 11.024C62.5189 11.024 62.7158 11.2773 62.7158 11.8533V12.6482C62.7158 13.2932 62.4262 13.5006 61.9513 13.5006H61.4533V11.024H62.0672ZM67.6614 9.87191H65.7966L64.4994 17.9356H65.6693L65.8893 16.4726H67.4529L67.6729 17.9356H68.9586L67.6614 9.87191ZM66.6653 11.3004L67.2792 15.3783H66.0514L66.6653 11.3004ZM66.839 8.16709L66.0514 9.44581H66.9085L68.0898 8.16709H66.839ZM71.4256 9.87191H69.5493V17.9356H70.8233V14.9059H71.4256C72.6996 14.9059 73.3251 14.2033 73.3251 12.9131V11.8647C73.3251 10.5745 72.6996 9.87191 71.4256 9.87191ZM71.4256 11.024C71.8309 11.024 72.051 11.2082 72.051 11.7842V12.9938C72.051 13.5698 71.8309 13.754 71.4256 13.754H70.8233V11.0239L71.4256 11.024ZM73.9159 17.9356H75.1899V9.87191H73.9159V17.9356ZM76.1165 17.9356H78.1318C79.4059 17.9356 80.0314 17.2329 80.0314 15.9427V11.8648C80.0314 10.5746 79.4059 9.87191 78.1318 9.87191H76.1165V17.9356ZM78.1087 11.024C78.514 11.024 78.7573 11.2313 78.7573 11.8072V16.0003C78.7573 16.5763 78.514 16.7837 78.1087 16.7837H77.3905V11.024H78.1087ZM83.6565 9.87191H81.7917L80.4945 17.9356H81.6643L81.8845 16.4726H83.4481L83.668 17.9356H84.9537L83.6565 9.87191ZM82.6604 11.3004L83.2743 15.3783H82.0465L82.6604 11.3004Z" fill="#292D2D"/>
<path fill-rule="evenodd" clip-rule="evenodd" d="M10.2548 3.4834C10.6968 2.97425 11.4331 2.15256 11.2198 1.40566C11.0218 0.714601 10.1293 1.09342 9.7682 1.53048C9.4173 1.95509 9.21227 2.8741 8.77866 3.03133C8.55125 3.11416 8.40997 2.33131 8.39278 2.20821C8.30278 1.576 8.24893 1.20439 7.60683 0.9411C7.49357 0.903195 7.38087 0.883778 7.27228 0.880573C6.32702 0.741264 6.39922 1.77203 6.52911 2.24932C6.70729 2.68987 7.17294 3.75482 6.67707 3.79101C6.47582 3.80578 6.25859 3.55466 5.99097 3.32296C5.20791 2.68146 3.7871 3.42 5.39254 4.77778C5.92395 5.07317 6.37274 5.61159 5.98602 6.20185C5.88206 6.36081 5.54741 6.56269 5.35289 6.7883C5.06929 7.11853 4.77921 7.55202 5.30749 7.84457C5.94459 8.1269 6.38087 7.77968 6.70351 7.25198C6.92601 6.8891 7.27111 6.64175 7.68721 6.52822C7.85992 6.48158 7.99037 6.77497 8.01251 6.89575C8.20881 7.94133 7.6625 8.78819 8.85147 9.26432C9.03871 9.33962 9.94026 9.56468 9.92718 9.75411C9.92686 9.76539 8.97552 12.0714 8.86632 12.3593C7.57745 15.7461 7.55069 17.7159 7.38526 21.2884C7.36457 21.7293 7.34477 22.1706 7.32408 22.612C3.50902 21.4709 4.28217 23.0702 3.08358 26.7835C2.95603 27.5927 2.25101 27.2515 2.00992 26.7186C1.89694 25.565 1.35236 25.3015 0.950838 25.2575C-0.171765 25.6415 0.0472348 26.5512 0.0731561 26.866C0.126447 27.5139 0.901051 28.1751 1.01198 28.2959C1.31103 28.6223 1.22051 28.9058 1.11127 29.0999C0.92926 29.4254 0.589154 29.501 0.303132 29.5615C-0.0198338 29.6898 -0.0436534 29.9693 0.0433582 30.2108C0.0785739 30.3102 0.140925 30.4139 0.233822 30.4797C1.20384 31.1756 1.84244 29.9789 2.53349 30.301C3.34363 30.6618 2.32756 31.3737 2.11067 31.7505C1.67239 32.5116 2.20674 33.4338 2.83165 33.3241C3.52733 33.0617 3.52849 32.7558 3.6156 32.0509C3.70266 31.3494 4.0911 31.4803 4.39455 31.8536C4.84796 32.4117 5.70729 32.4453 5.96211 31.6164C6.31389 29.3936 3.93791 29.899 4.5646 27.4792C5.24402 24.8557 8.76437 24.6955 10.5844 26.84C12.112 28.64 13.6941 30.7331 15.2504 32.6264C22.1021 40.962 37.4911 47.5279 48.3446 41.8999C48.7426 41.6937 49.4381 41.2404 48.7074 40.8946C48.1757 40.6432 47.5076 40.8842 46.971 41.0154C46.0316 41.2277 45.0869 41.4307 44.1364 41.5879C43.0054 41.7739 41.367 41.7255 40.2078 41.6528C33.1554 41.2097 26.7335 38.087 21.8901 32.9962C20.907 31.9599 19.1676 29.8897 18.6459 28.5441C18.6184 28.4732 18.594 28.4022 18.5771 28.3287C17.8739 25.2343 20.043 24.5152 20.8954 24.3701C22.4199 24.2644 23.3083 25.9318 22.449 26.7728C22.3275 26.8919 22.1959 26.9961 22.0325 27.2993C22.0325 27.2993 21.5229 28.2632 22.0657 28.5887C22.2646 28.7075 22.4938 28.6823 22.704 28.5068C22.7515 28.4671 22.84 28.3674 22.9079 28.2282C22.9507 28.1396 23.0115 28.0457 23.0433 27.9423C23.1574 27.5702 23.8829 27.076 24.1281 28.2899C24.2483 28.8851 24.027 29.2248 24.6362 29.404C25.1755 29.4573 25.5398 29.0159 25.5151 28.3796C25.5037 28.0842 25.2034 27.6602 25.0086 27.2892C24.8866 27.0555 24.9329 26.8585 25.0057 26.7618C25.6274 26.0264 26.2996 27.33 27.1711 26.5999C27.2459 26.5373 27.292 26.4456 27.3161 26.3586C27.3747 26.1475 27.3362 25.9106 27.0526 25.822C26.8056 25.7893 26.511 25.7464 26.3351 25.4808C26.2296 25.3227 26.1341 25.0869 26.3677 24.7901C26.4544 24.68 27.0712 24.0674 27.075 23.5119C27.0767 23.2425 27.2046 22.4539 26.2232 22.1988C25.5202 22.0997 25.3438 22.6505 25.3784 23.2124C25.3869 23.3489 25.3373 23.498 25.2748 23.631C24.9655 24.2875 24.6714 24.3958 24.3624 24.5433C23.7293 24.7228 23.3447 24.4344 22.8839 23.6515C22.7436 23.4137 22.2689 22.9144 22.1416 22.3439C21.7992 21.168 21.0694 20.7909 20.5296 20.6979C20.2791 20.6548 20.0689 20.6904 19.9585 20.7034C19.4544 20.7929 18.8545 21.4405 18.6254 21.8863C18.3778 22.3685 18.1038 22.6998 17.5761 22.9034C17.093 23.0897 16.6451 23.0369 16.1827 22.822C13.6734 21.1798 14.1652 17.4362 16.5476 15.5243C17.2613 14.9515 18.2089 14.6577 18.9937 14.6705C19.4818 14.6783 19.9503 14.6152 20.5499 14.937C21.2145 15.2935 21.623 15.6454 21.8964 16.4812C22.0196 16.8572 21.9215 17.0978 21.9798 17.3513C22.1088 17.7988 22.4815 18.3481 23.091 18.1871C23.6941 18.0273 23.722 17.4202 23.5578 16.9313C23.5141 16.8007 23.4084 16.6556 23.3164 16.5039C23.2389 16.375 23.1268 16.2559 23.0925 16.114C23.0217 15.82 23.0432 15.6367 23.1038 15.5029C23.1571 15.3856 23.2384 15.3036 23.3476 15.2399C23.5779 15.1055 23.9058 15.1976 23.9734 15.4594C24.0424 15.7267 24.0634 15.908 24.4271 16.2539C24.5863 16.4053 24.7322 16.6289 24.9367 16.8635C25.3621 17.351 25.9233 17.5273 26.5197 17.3579C27.6324 17.0416 26.0226 15.5958 25.6318 15.3274C24.7774 14.74 24.7358 15.2755 24.7654 13.8468C25.893 13.4741 26.0479 13.5352 27.1274 13.8109C27.905 14.0085 28.2031 13.7637 28.0826 12.936C27.7421 10.9352 26.5963 12.3608 25.5788 12.6081C25.4436 12.6414 25.2957 12.6707 25.1557 12.6849C24.8505 10.6483 25.8951 11.7103 25.9122 10.5744C25.927 9.67105 25.1976 9.26502 24.4349 9.88329C23.4856 10.6537 23.388 11.8287 21.9395 12.6527C21.4133 12.9295 19.8198 13.6032 19.3303 13.097C18.9506 12.7046 18.8245 10.6986 18.8752 10.1052C19.0013 8.62696 19.7546 7.73578 21.0386 7.04416C22.5458 6.31487 23.853 5.93085 25.2884 5.22706C27.7633 4.01407 28.8845 3.2498 28.8484 2.44344C28.8257 1.94529 28.6332 0.591318 26.2199 0.301088C24.0341 0.0384035 24.0548 -0.00154496 22.4541 0.000173751C18.8845 0.0260009 16.9561 1.22446 14.9285 3.93649C13.6937 5.59459 12.5298 7.55508 10.1117 7.07746C9.63061 6.98252 9.68273 6.97234 9.60291 6.48C9.40166 5.24127 9.41436 4.48839 10.2548 3.4834Z" fill="#71D044"/>
<path d="M28.9355 33.5813H31.0406V20.2585H28.9355V33.5813ZM35.4802 20.2585H32.5524V33.5813H34.3895V24.1602L35.9586 33.5813H37.9488L39.4031 24.0269V33.5813H41.3933V20.2585H38.4655L37.0302 29.7177L35.4802 20.2585ZM46.0243 20.2585H42.9242V33.5813H45.0292V28.5758H46.0243C48.1293 28.5758 49.1627 27.4147 49.1627 25.2831V23.5512C49.1627 21.4195 48.1293 20.2585 46.0243 20.2585ZM46.0243 22.1618C46.6941 22.1618 47.0577 22.4662 47.0577 23.4178V25.4163C47.0577 26.3679 46.6941 26.6724 46.0243 26.6724H45.0292V22.1618H46.0243ZM56.6832 33.5812C56.4728 33.0864 56.4537 32.6106 56.4537 31.9634V29.908C56.4537 28.5185 56.1092 27.5099 55.0567 27.0721C55.9943 26.6343 56.4345 25.7398 56.4345 24.3695V23.3226C56.4345 21.2672 55.4969 20.2584 53.3154 20.2584H50.1387V33.5812H52.2438V28.157H52.9708C53.9278 28.157 54.3487 28.6137 54.3487 29.8508V31.9445C54.3487 33.0293 54.4253 33.2386 54.5401 33.5812H56.6832ZM53.2579 22.1618C54.0043 22.1618 54.3295 22.5805 54.3295 23.5321V24.8453C54.3295 25.9111 53.8511 26.2537 53.0665 26.2537H52.2438V22.1618H53.2579ZM59.9366 22.1618H63.5725V20.2585H57.8315V33.5813H63.5725V31.6781H59.9366V27.7764H62.8261V25.8731H59.9366V22.1618ZM64.6058 23.4559C64.6058 27.2625 68.7202 27.7763 68.7202 30.517C68.7202 31.4686 68.2992 31.8112 67.6294 31.8112C66.9596 31.8112 66.5387 31.4686 66.5387 30.517V29.5655H64.5484V30.3837C64.5484 32.5154 65.6201 33.7334 67.6869 33.7334C69.7535 33.7334 70.8251 32.5154 70.8251 30.3837C70.8251 26.5772 66.7109 26.0634 66.7109 23.3226C66.7109 22.3711 67.0935 22.0094 67.7634 22.0094C68.4331 22.0094 68.8159 22.3711 68.8159 23.3226V23.8746H70.806V23.4559C70.806 21.3243 69.7535 20.1062 67.7059 20.1062C65.6584 20.1062 64.6058 21.3243 64.6058 23.4559ZM71.7628 23.4559C71.7628 27.2625 75.8772 27.7763 75.8772 30.517C75.8772 31.4686 75.4562 31.8112 74.7863 31.8112C74.1166 31.8112 73.6957 31.4686 73.6957 30.517V29.5655H71.7054V30.3837C71.7054 32.5154 72.7771 33.7334 74.8438 33.7334C76.9105 33.7334 77.9821 32.5154 77.9821 30.3837C77.9821 26.5772 73.8679 26.0634 73.8679 23.3226C73.8679 22.3711 74.2505 22.0094 74.9204 22.0094C75.5901 22.0094 75.9729 22.3711 75.9729 23.3226V23.8746H77.963V23.4559C77.963 21.3243 76.9105 20.1062 74.8629 20.1062C72.8154 20.1062 71.7628 21.3243 71.7628 23.4559ZM83.857 20.2584H80.776L78.6328 33.5812H80.5655L80.9291 31.164H83.5125L83.876 33.5812H86.0001L83.857 20.2584ZM82.2112 22.6185L83.2255 29.356H81.1971L82.2112 22.6185Z" fill="#201E1E"/>
</svg>
